<?xml version="1.0" encoding="UTF-8"?>
<svg id="Layer_2" data-name="Layer 2" xmlns="http://www.w3.org/2000/svg" viewBox="0 0 1679.45 349.89">
  <defs>
    <style>
      .cls-1 {
        font-family: ABCDiatypeGeorgianVariable-Light, 'ABC Diatype Georgian Variable Unlicensed Trial';
        font-size: 95.42px;
        font-variation-settings: 'wght' 300, 'slnt' 0;
        font-weight: 300;
      }
    </style>
  </defs>
  <g id="Layer_1-2" data-name="Layer 1">
    <g>
      <g>
        <path d="M274.11,19.56c-19.86-11.31-36.95-14.37-77.87-14.37h-22.01v11.01h23.84c27.78,0,45.2,4.89,58.04,16.8,15.87,14.67,24.42,40.31,24.42,74.53,0,30.23-6.72,53.15-20.16,68.72-13.74,15.9-31.76,21.71-66.29,21.71h-19.86v10.98h15.6c45.2,0,62.6-3.06,83.68-15.27,28.7-16.2,44-47.03,44-88.57,0-38.81-15.9-70.27-43.4-85.54Z"/>
        <path d="M488.24,5.19v156.09L380.71,5.19h-38.18v203.75h13.77V28.73l124.62,181.73h20.76V5.19h-13.44Z"/>
        <path d="M512.35,5.19v11.31h72.4v192.44h34.19V16.5h72.1V5.19h-178.7Z"/>
        <path d="M894.15,194.6c-20.46,5.19-32.97,7.02-47.03,7.02-39.08,0-58.94-32.39-58.94-95.62s19.56-94.06,56.21-94.06c28.4,0,47.03,20.76,49.46,55.88h34.22c-1.83-15.87-4.89-25.35-12.21-35.72-14.07-19.56-40.01-31.16-69.95-31.16-36.05,0-63.86,14.67-79.72,42.77-9.48,16.5-14.97,39.38-14.97,62.3,0,66.59,35.42,106.9,93.76,106.9,23.22,0,60.47-7.02,83.08-15.87v-72.08h-33.92v69.65Z"/>
        <path d="M1095.13,152.43c-7.32-32.36-18.33-41.84-50.09-43.37v-.6c36.65-4.59,55.28-21.69,55.28-50.42,0-18.63-8.55-33.89-24.12-42.74-12.84-7.35-27.5-10.11-53.45-10.11h-62.93v203.75h34.19v-94.06h18.33c35.75.3,40.64,4.56,49.49,43.37l12.21,50.69h36.05l-14.97-56.51ZM994.02,104.17V15.6h23.52c12.54,0,21.69,1.83,28.73,5.79,11.61,6.42,18.03,20.16,18.03,37.88,0,29.03-15.9,44.9-44.9,44.9h-25.37Z"/>
        <path d="M1295.19,32.69c-18.03-21.39-44.27-32.69-75.13-32.69-36.05,0-68.12,17.42-84.61,46.13-9.15,15.6-14.37,37.28-14.37,60.8,0,34.82,10.11,62.93,29.93,81.55,17.43,16.8,41.57,25.65,69.04,25.65,25.97,0,50.39-8.85,67.82-24.12,19.56-17.42,31.46-48.26,31.46-80.95s-7.65-57.11-24.14-76.36ZM1220.06,202.82c-20.76,0-38.78-10.38-48.56-28.1-9.48-16.8-13.44-36.65-13.44-68.09s3.96-50.12,13.44-67.21c10.08-18.03,28.1-28.4,48.86-28.4s38.48,10.38,48.26,27.5c9.78,17.1,13.74,37.55,13.74,69.62,0,61.4-21.99,94.69-62.3,94.69Z"/>
        <path d="M1487,5.19v125.25c0,20.76-2.43,33.59-8.55,44.27-9.15,15.9-28.1,25.97-48.86,25.97-18.95,0-36.05-8.55-43.7-21.99-6.09-10.71-8.85-24.74-8.85-45.5V5.19h-34.19v121.59c0,25.04,2.73,39.38,10.38,52.82,12.21,21.39,37.25,33.29,70.55,33.29s56.21-11.58,68.42-32.97c7.05-12.54,9.78-26.57,9.78-49.49V5.19h-14.97Z"/>
        <path d="M1653.77,14.97c-12.81-7.32-27.18-9.78-56.81-9.78h-59.57v203.75h34.22v-86.44h25.05c28.7,0,43.97-2.76,57.41-10.38,16.82-9.48,25.37-25.97,25.37-48.56s-8.55-39.11-25.67-48.59ZM1599.09,111.81h-27.48V15.6h26.57c30.53,0,44.6,15.27,44.6,47.96s-14.07,48.26-43.7,48.26Z"/>
      </g>
      <text class="cls-1" transform="translate(164.84 322.69)"><tspan x="0" y="0">HOTEL MANAGEMENT COMPANY</tspan></text>
      <rect x="0" y="65.91" width="10.12" height="82.32"/>
      <rect x="40.49" y="45.67" width="20.24" height="122.81"/>
      <rect x="80.98" y="25.42" width="30.37" height="163.3"/>
      <rect x="121.47" y="5.18" width="40.49" height="203.78"/>
    </g>
  </g>
</svg>